# xmcd
#
# Track frame offsets:
#	150
#	31482
#	53931
#	75568
#	106003
#	125631
#	157178
#	183185
#	210919
#	231317
#	251474
#	267579
#	289201
#	309191
#	334819
#
# Disc length: 4771 seconds
#
# Revision: 3
# Processed by: cddbd v1.5.2PL0 Copyright (c) Steve Scherf et al.
# Submitted via: EZCDAudioConverter 6.0.0.1
#
DISCID=d012a10f
DTITLE=Various Artist - Akella Presents - Blues-Rock - vol.12  CD2 New!
DYEAR=2013
DGENRE=Blues
TTITLE0=OUTLAWS - Diablo Canyon
TTITLE1=SNOWY WHITE - Silence In the Valey
TTITLE2=CRAIG ERICKSONr - Ego Tripper
TTITLE3=INNES SIBUN - Obsession
TTITLE4=ROB TOGNONI - Dirty Occupation
TTITLE5=BLINDSIDE BLUES BAND - Truth Never Lies
TTITLE6=GLENN HUGHES - I'm the Man
TTITLE7=PAT TRAVERS - Look Me Up
TTITLE8=SONNY LANDRETH - Falling For You
TTITLE9=SOUTHERN GENTLEMEN - Exotic Dancer Blues
TTITLE10=BUDDAHEADS - Howlin' at the Moon
TTITLE11=DAVE MENIKETTI - Man's World
TTITLE12=The GALES BROS. - Rockin' Horse Ride 
TTITLE13=DAMAGE CONTROL - Selfish
TTITLE14=MICHAEL KATON - Buncha Loud Boogie
EXTD=
EXTT0=
EXTT1=
EXTT2=
EXTT3=
EXTT4=
EXTT5=
EXTT6=
EXTT7=
EXTT8=
EXTT9=
EXTT10=
EXTT11=
EXTT12=
EXTT13=
EXTT14=
PLAYORDER=
